<?xml version="1.0" standalone="yes"?><svg xmlns="http://www.w3.org/2000/svg" version="1.1" width="370" height="370" viewBox="0 0 370 370" shape-rendering="crispEdges"><rect x="0" y="0" width="370" height="370" fill="#ffffff"/><path fill="#000000" d="M40 40h10v10H40V40M50 40h10v10H50V40M60 40h10v10H60V40M70 40h10v10H70V40M80 40h10v10H80V40M90 40h10v10H90V40M100 40h10v10H100V40M120 40h10v10H120V40M150 40h10v10H150V40M160 40h10v10H160V40M170 40h10v10H170V40M180 40h10v10H180V40M190 40h10v10H190V40M230 40h10v10H230V40M260 40h10v10H260V40M270 40h10v10H270V40M280 40h10v10H280V40M290 40h10v10H290V40M300 40h10v10H300V40M310 40h10v10H310V40M320 40h10v10H320V40M40 50h10v10H40V50M100 50h10v10H100V50M120 50h10v10H120V50M150 50h10v10H150V50M170 50h10v10H170V50M200 50h10v10H200V50M210 50h10v10H210V50M240 50h10v10H240V50M260 50h10v10H260V50M320 50h10v10H320V50M40 60h10v10H40V60M60 60h10v10H60V60M70 60h10v10H70V60M80 60h10v10H80V60M100 60h10v10H100V60M130 60h10v10H130V60M140 60h10v10H140V60M200 60h10v10H200V60M220 60h10v10H220V60M240 60h10v10H240V60M260 60h10v10H260V60M280 60h10v10H280V60M290 60h10v10H290V60M300 60h10v10H300V60M320 60h10v10H320V60M40 70h10v10H40V70M60 70h10v10H60V70M70 70h10v10H70V70M80 70h10v10H80V70M100 70h10v10H100V70M120 70h10v10H120V70M140 70h10v10H140V70M150 70h10v10H150V70M160 70h10v10H160V70M180 70h10v10H180V70M190 70h10v10H190V70M210 70h10v10H210V70M220 70h10v10H220V70M230 70h10v10H230V70M260 70h10v10H260V70M280 70h10v10H280V70M290 70h10v10H290V70M300 70h10v10H300V70M320 70h10v10H320V70M40 80h10v10H40V80M60 80h10v10H60V80M70 80h10v10H70V80M80 80h10v10H80V80M100 80h10v10H100V80M130 80h10v10H130V80M150 80h10v10H150V80M180 80h10v10H180V80M200 80h10v10H200V80M220 80h10v10H220V80M230 80h10v10H230V80M240 80h10v10H240V80M260 80h10v10H260V80M280 80h10v10H280V80M290 80h10v10H290V80M300 80h10v10H300V80M320 80h10v10H320V80M40 90h10v10H40V90M100 90h10v10H100V90M150 90h10v10H150V90M170 90h10v10H170V90M190 90h10v10H190V90M200 90h10v10H200V90M210 90h10v10H210V90M230 90h10v10H230V90M260 90h10v10H260V90M320 90h10v10H320V90M40 100h10v10H40V100M50 100h10v10H50V100M60 100h10v10H60V100M70 100h10v10H70V100M80 100h10v10H80V100M90 100h10v10H90V100M100 100h10v10H100V100M120 100h10v10H120V100M140 100h10v10H140V100M160 100h10v10H160V100M180 100h10v10H180V100M200 100h10v10H200V100M220 100h10v10H220V100M240 100h10v10H240V100M260 100h10v10H260V100M270 100h10v10H270V100M280 100h10v10H280V100M290 100h10v10H290V100M300 100h10v10H300V100M310 100h10v10H310V100M320 100h10v10H320V100M120 110h10v10H120V110M140 110h10v10H140V110M150 110h10v10H150V110M190 110h10v10H190V110M200 110h10v10H200V110M210 110h10v10H210V110M240 110h10v10H240V110M40 120h10v10H40V120M60 120h10v10H60V120M70 120h10v10H70V120M90 120h10v10H90V120M100 120h10v10H100V120M110 120h10v10H110V120M140 120h10v10H140V120M170 120h10v10H170V120M190 120h10v10H190V120M230 120h10v10H230V120M240 120h10v10H240V120M260 120h10v10H260V120M290 120h10v10H290V120M310 120h10v10H310V120M320 120h10v10H320V120M80 130h10v10H80V130M90 130h10v10H90V130M120 130h10v10H120V130M140 130h10v10H140V130M160 130h10v10H160V130M170 130h10v10H170V130M180 130h10v10H180V130M190 130h10v10H190V130M230 130h10v10H230V130M250 130h10v10H250V130M260 130h10v10H260V130M280 130h10v10H280V130M320 130h10v10H320V130M50 140h10v10H50V140M70 140h10v10H70V140M80 140h10v10H80V140M90 140h10v10H90V140M100 140h10v10H100V140M120 140h10v10H120V140M130 140h10v10H130V140M170 140h10v10H170V140M200 140h10v10H200V140M210 140h10v10H210V140M240 140h10v10H240V140M250 140h10v10H250V140M260 140h10v10H260V140M270 140h10v10H270V140M280 140h10v10H280V140M300 140h10v10H300V140M310 140h10v10H310V140M60 150h10v10H60V150M120 150h10v10H120V150M130 150h10v10H130V150M140 150h10v10H140V150M150 150h10v10H150V150M160 150h10v10H160V150M200 150h10v10H200V150M240 150h10v10H240V150M250 150h10v10H250V150M280 150h10v10H280V150M290 150h10v10H290V150M320 150h10v10H320V150M50 160h10v10H50V160M70 160h10v10H70V160M100 160h10v10H100V160M110 160h10v10H110V160M130 160h10v10H130V160M140 160h10v10H140V160M180 160h10v10H180V160M190 160h10v10H190V160M220 160h10v10H220V160M230 160h10v10H230V160M250 160h10v10H250V160M270 160h10v10H270V160M290 160h10v10H290V160M300 160h10v10H300V160M70 170h10v10H70V170M80 170h10v10H80V170M90 170h10v10H90V170M130 170h10v10H130V170M180 170h10v10H180V170M200 170h10v10H200V170M210 170h10v10H210V170M220 170h10v10H220V170M230 170h10v10H230V170M240 170h10v10H240V170M260 170h10v10H260V170M270 170h10v10H270V170M310 170h10v10H310V170M320 170h10v10H320V170M50 180h10v10H50V180M70 180h10v10H70V180M90 180h10v10H90V180M100 180h10v10H100V180M110 180h10v10H110V180M130 180h10v10H130V180M170 180h10v10H170V180M190 180h10v10H190V180M200 180h10v10H200V180M210 180h10v10H210V180M230 180h10v10H230V180M250 180h10v10H250V180M290 180h10v10H290V180M300 180h10v10H300V180M310 180h10v10H310V180M320 180h10v10H320V180M60 190h10v10H60V190M70 190h10v10H70V190M80 190h10v10H80V190M120 190h10v10H120V190M130 190h10v10H130V190M140 190h10v10H140V190M160 190h10v10H160V190M180 190h10v10H180V190M200 190h10v10H200V190M260 190h10v10H260V190M280 190h10v10H280V190M310 190h10v10H310V190M40 200h10v10H40V200M60 200h10v10H60V200M80 200h10v10H80V200M100 200h10v10H100V200M110 200h10v10H110V200M120 200h10v10H120V200M130 200h10v10H130V200M160 200h10v10H160V200M180 200h10v10H180V200M190 200h10v10H190V200M200 200h10v10H200V200M280 200h10v10H280V200M310 200h10v10H310V200M50 210h10v10H50V210M120 210h10v10H120V210M130 210h10v10H130V210M140 210h10v10H140V210M150 210h10v10H150V210M160 210h10v10H160V210M180 210h10v10H180V210M200 210h10v10H200V210M210 210h10v10H210V210M250 210h10v10H250V210M270 210h10v10H270V210M300 210h10v10H300V210M310 210h10v10H310V210M40 220h10v10H40V220M70 220h10v10H70V220M80 220h10v10H80V220M100 220h10v10H100V220M140 220h10v10H140V220M170 220h10v10H170V220M180 220h10v10H180V220M190 220h10v10H190V220M200 220h10v10H200V220M220 220h10v10H220V220M250 220h10v10H250V220M280 220h10v10H280V220M290 220h10v10H290V220M300 220h10v10H300V220M80 230h10v10H80V230M130 230h10v10H130V230M170 230h10v10H170V230M180 230h10v10H180V230M210 230h10v10H210V230M230 230h10v10H230V230M250 230h10v10H250V230M300 230h10v10H300V230M50 240h10v10H50V240M60 240h10v10H60V240M70 240h10v10H70V240M100 240h10v10H100V240M110 240h10v10H110V240M130 240h10v10H130V240M140 240h10v10H140V240M160 240h10v10H160V240M170 240h10v10H170V240M180 240h10v10H180V240M200 240h10v10H200V240M240 240h10v10H240V240M250 240h10v10H250V240M260 240h10v10H260V240M270 240h10v10H270V240M280 240h10v10H280V240M290 240h10v10H290V240M300 240h10v10H300V240M120 250h10v10H120V250M130 250h10v10H130V250M150 250h10v10H150V250M190 250h10v10H190V250M200 250h10v10H200V250M220 250h10v10H220V250M240 250h10v10H240V250M280 250h10v10H280V250M290 250h10v10H290V250M300 250h10v10H300V250M310 250h10v10H310V250M320 250h10v10H320V250M40 260h10v10H40V260M50 260h10v10H50V260M60 260h10v10H60V260M70 260h10v10H70V260M80 260h10v10H80V260M90 260h10v10H90V260M100 260h10v10H100V260M120 260h10v10H120V260M140 260h10v10H140V260M180 260h10v10H180V260M190 260h10v10H190V260M210 260h10v10H210V260M230 260h10v10H230V260M240 260h10v10H240V260M260 260h10v10H260V260M280 260h10v10H280V260M290 260h10v10H290V260M310 260h10v10H310V260M40 270h10v10H40V270M100 270h10v10H100V270M120 270h10v10H120V270M130 270h10v10H130V270M140 270h10v10H140V270M170 270h10v10H170V270M180 270h10v10H180V270M190 270h10v10H190V270M230 270h10v10H230V270M240 270h10v10H240V270M280 270h10v10H280V270M320 270h10v10H320V270M40 280h10v10H40V280M60 280h10v10H60V280M70 280h10v10H70V280M80 280h10v10H80V280M100 280h10v10H100V280M150 280h10v10H150V280M160 280h10v10H160V280M200 280h10v10H200V280M220 280h10v10H220V280M240 280h10v10H240V280M250 280h10v10H250V280M260 280h10v10H260V280M270 280h10v10H270V280M280 280h10v10H280V280M300 280h10v10H300V280M310 280h10v10H310V280M320 280h10v10H320V280M40 290h10v10H40V290M60 290h10v10H60V290M70 290h10v10H70V290M80 290h10v10H80V290M100 290h10v10H100V290M120 290h10v10H120V290M170 290h10v10H170V290M230 290h10v10H230V290M280 290h10v10H280V290M310 290h10v10H310V290M40 300h10v10H40V300M60 300h10v10H60V300M70 300h10v10H70V300M80 300h10v10H80V300M100 300h10v10H100V300M120 300h10v10H120V300M140 300h10v10H140V300M170 300h10v10H170V300M180 300h10v10H180V300M210 300h10v10H210V300M220 300h10v10H220V300M250 300h10v10H250V300M270 300h10v10H270V300M290 300h10v10H290V300M320 300h10v10H320V300M40 310h10v10H40V310M100 310h10v10H100V310M130 310h10v10H130V310M140 310h10v10H140V310M170 310h10v10H170V310M180 310h10v10H180V310M190 310h10v10H190V310M210 310h10v10H210V310M220 310h10v10H220V310M230 310h10v10H230V310M240 310h10v10H240V310M250 310h10v10H250V310M280 310h10v10H280V310M290 310h10v10H290V310M310 310h10v10H310V310M40 320h10v10H40V320M50 320h10v10H50V320M60 320h10v10H60V320M70 320h10v10H70V320M80 320h10v10H80V320M90 320h10v10H90V320M100 320h10v10H100V320M120 320h10v10H120V320M130 320h10v10H130V320M140 320h10v10H140V320M160 320h10v10H160V320M170 320h10v10H170V320M210 320h10v10H210V320M220 320h10v10H220V320M240 320h10v10H240V320M260 320h10v10H260V320M290 320h10v10H290V320M310 320h10v10H310V320"/></svg>